HIERARCHY
ROOT Hips
{
	OFFSET -3.958830 18.904000 13.208200
	CHANNELS 6 Xposition Yposition Zposition Zrotation Yrotation Xrotation 
	JOINT LHipJoint
	{
		OFFSET 0.000000 0.000000 0.000000
		CHANNELS 3 Zrotation Yrotation Xrotation
		JOINT LeftUpLeg
		{
			OFFSET 1.800000 -1.400000 0.085000
			CHANNELS 3 Zrotation Yrotation Xrotation
			JOINT LeftLeg
			{
				OFFSET 2.215000 -6.000000 0.000000
				CHANNELS 3 Zrotation Yrotation Xrotation
				JOINT LeftFoot
				{
					OFFSET 2.500000 -6.900000 0.000000
					CHANNELS 3 Zrotation Yrotation Xrotation
					JOINT LeftToeBase
					{
						OFFSET 0.200000 -0.500000 1.950000
						CHANNELS 3 Zrotation Yrotation Xrotation
						End Site
						{
							OFFSET 0.000000 0.000000 0.000000
						}
					}
				}
			}
		}
	}
	JOINT RHipJoint
	{
		OFFSET 0.000000 0.000000 0.000000
		CHANNELS 3 Zrotation Yrotation Xrotation
		JOINT RightUpLeg
		{
			OFFSET -1.800000 -1.400000 0.085000
			CHANNELS 3 Zrotation Yrotation Xrotation
			JOINT RightLeg
			{
				OFFSET -2.215000 -6.000000 0.000000
				CHANNELS 3 Zrotation Yrotation Xrotation
				JOINT RightFoot
				{
					OFFSET -2.500000 -6.900000 0.000000
					CHANNELS 3 Zrotation Yrotation Xrotation
					JOINT RightToeBase
					{
						OFFSET -0.200000 -0.500000 1.950000
						CHANNELS 3 Zrotation Yrotation Xrotation
						End Site
						{
							OFFSET 0.000000 0.000000 0.000000
						}
					}
				}
			}
		}
	}
	JOINT LowerBack
	{
		OFFSET 0.000000 0.000000 0.000000
		CHANNELS 3 Zrotation Yrotation Xrotation
		JOINT Spine
		{
			OFFSET -0.087000 1.940000 -0.288900
			CHANNELS 3 Zrotation Yrotation Xrotation
			JOINT Spine1
			{
				OFFSET 0.000000 1.950000 0.060000
				CHANNELS 3 Zrotation Yrotation Xrotation
				JOINT Neck
				{
					OFFSET 0.000000 0.000000 0.000000
					CHANNELS 3 Zrotation Yrotation Xrotation
					JOINT Neck1
					{
						OFFSET 0.000000 1.600000 0.340000
						CHANNELS 3 Zrotation Yrotation Xrotation
						JOINT Head
						{
							OFFSET 0.000000 1.667000 -0.240000
							CHANNELS 3 Zrotation Yrotation Xrotation
							End Site
							{
								OFFSET 0.000000 0.000000 0.000000
							}
						}
					}
				}
				JOINT LeftShoulder
				{
					OFFSET 0.000000 0.000000 0.000000
					CHANNELS 3 Zrotation Yrotation Xrotation
					JOINT LeftArm
					{
						OFFSET 2.700000 1.550000 -0.730000
						CHANNELS 3 Zrotation Yrotation Xrotation
						JOINT LeftForeArm
						{
							OFFSET 5.450000 0.000000 0.000000
							CHANNELS 3 Zrotation Yrotation Xrotation
							JOINT LeftHand
							{
								OFFSET 3.450000 0.000000 0.000000
								CHANNELS 3 Zrotation Yrotation Xrotation
								JOINT LeftHandIndex1
								{
									OFFSET 0.750000 0.000000 0.000000
									CHANNELS 3 Zrotation Yrotation Xrotation
									End Site
									{
										OFFSET 0.000000 0.000000 0.000000
									}
								}
							}
						}
					}
				}
				JOINT RightShoulder
				{
					OFFSET 0.000000 0.000000 0.000000
					CHANNELS 3 Zrotation Yrotation Xrotation
					JOINT RightArm
					{
						OFFSET -2.700000 1.550000 -0.730000
						CHANNELS 3 Zrotation Yrotation Xrotation
						JOINT RightForeArm
						{
							OFFSET -5.450000 0.000000 0.000000
							CHANNELS 3 Zrotation Yrotation Xrotation
							JOINT RightHand
							{
								OFFSET -3.450000 0.000000 0.000000
								CHANNELS 3 Zrotation Yrotation Xrotation
								JOINT RightHandIndex1
								{
									OFFSET -0.750000 0.000000 0.000000
									CHANNELS 3 Zrotation Yrotation Xrotation
									End Site
									{
										OFFSET 0.000000 0.000000 0.000000
									}
								}
							}
						}
					}
				}
			}
		}
	}
}
MOTION
Frames: 14
Frame Time: 0.016667
-0.591770 16.780580 -1.413260 -3.283743 -15.272861 -16.464655 -14.941355 12.675231 2.735120 18.114058 6.605016 -30.647385 15.769920 10.960815 71.564392 1.395832 11.898915 0.096179 0.509310 0.658630 0.429910 18.500600 -10.595160 3.838470 -35.945725 15.927978 -18.291150 23.301149 -20.464103 49.102438 -1.821533 -9.704672 0.585533 0.093800 -0.336400 0.219160 -4.200645 0.501676 -8.605363 33.333199 -7.432410 43.052533 -17.245813 3.935195 13.930774 14.902679 4.986683 -17.607073 20.463973 -12.567917 57.923220 11.024140 -8.344330 -38.419630 -11.775119 -22.789376 14.889718 -66.747127 11.104913 -23.817615 -44.101177 -25.772781 0.534286 -2.791859 2.990838 0.846140 -0.584060 0.804610 0.014580 -17.300706 29.152934 1.871278 2.662122 28.639256 -12.442924 -152.947297 70.508720 -163.347703 2.478352 -1.899663 0.169540 0.248020 -0.129000 0.089020 
-0.606810 16.774290 -1.426470 -3.398793 -15.132916 -17.882290 -14.899903 13.018537 2.467083 16.995642 6.586353 -29.309229 19.004595 7.979210 70.127293 1.354952 11.510835 0.224445 0.497570 0.666080 0.379940 18.475465 -10.786082 3.800370 -34.798386 16.062558 -17.174567 22.044053 -19.984432 50.179194 -1.810717 -9.712421 0.588559 0.099180 -0.307020 0.198870 -4.188668 0.291888 -8.441377 34.175178 -8.271553 43.856425 -17.305629 3.277296 15.384518 15.119568 4.112254 -17.564216 17.869027 -11.588704 59.695808 12.989540 -9.719470 -37.968350 -10.870033 -23.841478 15.298226 -66.040297 10.562439 -23.924583 -49.012083 -25.714297 0.818197 -2.776774 3.016000 0.819120 -0.589700 0.784670 0.024090 -18.231323 30.524124 1.155487 0.382523 27.924338 -12.583407 -145.718830 70.432519 -155.380122 2.561578 -1.938161 0.176000 0.269840 -0.115630 0.126590 
-0.632070 16.748080 -1.430690 -3.171066 -15.124499 -19.391559 -14.827919 13.381724 2.146880 15.298434 6.675349 -27.329669 22.622046 4.855443 67.850945 1.326803 11.091713 0.369222 0.535690 0.729670 0.371340 18.467069 -11.099087 3.739861 -33.535468 16.204918 -16.302621 19.477916 -19.015222 52.167442 -1.808660 -9.686384 0.602998 0.133410 -0.302190 0.179440 -4.235092 0.249858 -8.220088 34.933380 -8.803683 44.176263 -17.616227 2.487644 17.299179 15.518313 3.266682 -17.280013 15.533393 -10.487974 61.710322 14.511920 -10.618980 -38.023160 -10.016415 -24.995934 15.921040 -64.499942 9.871173 -23.717618 -54.605060 -26.224681 1.425759 -2.736683 3.055217 0.795600 -0.609110 0.788200 0.049400 -19.287887 31.699973 -0.348449 -2.059526 28.268015 -10.418203 -129.351931 69.736658 -136.659958 2.913119 -1.521401 0.197990 0.293290 -0.136900 0.161910 
-0.668280 16.735640 -1.428910 -2.756031 -14.861159 -20.909464 -14.823376 13.772508 1.964537 14.195901 6.827569 -25.345040 24.896821 2.979337 65.791994 1.278609 10.810402 0.459162 0.590880 0.799200 0.393390 18.398013 -11.333745 3.560107 -32.031401 16.176614 -15.083104 16.029575 -17.433122 54.125453 -1.793905 -9.530397 0.649530 0.177280 -0.316420 0.173340 -4.093064 -0.095270 -8.055919 34.296625 -8.885257 45.038193 -17.210684 1.701675 18.438779 16.356789 2.342006 -16.601134 13.296643 -9.772654 63.648953 14.973350 -11.256880 -39.555470 -10.178202 -26.063780 16.795113 -63.680308 9.118401 -23.589263 -56.245320 -28.262008 2.296881 -2.690775 3.070679 0.810680 -0.637660 0.812720 0.065880 -20.084933 34.142501 -3.545076 -3.191151 28.476425 -8.487883 -112.457225 69.712441 -105.952248 3.586227 1.952608 0.209810 0.322540 -0.155870 0.174030 
-0.695760 16.719100 -1.427450 -2.818774 -14.753136 -21.539382 -14.830484 13.943594 1.909295 13.819247 6.912479 -24.598488 26.417861 1.825214 64.651242 1.302097 10.668046 0.506451 0.650710 0.886920 0.393740 18.365017 -11.426334 3.472228 -29.738501 16.352742 -14.808480 13.442446 -16.453872 56.841939 -1.840947 -9.618617 0.649062 0.218330 -0.327300 0.180490 -4.024154 -0.245245 -7.992850 33.950049 -8.951611 45.309727 -17.108932 1.377417 18.733757 17.053253 1.733134 -15.793035 12.031604 -9.093067 64.322862 14.996810 -12.009320 -39.221000 -10.278379 -26.270020 17.222384 -63.360660 8.341378 -23.278606 -56.119769 -30.538954 3.405104 -2.651512 3.148904 0.769160 -0.642740 0.819850 0.102900 -20.966193 35.553074 -6.145172 -2.482866 28.201466 -12.534664 -106.142438 76.049130 -89.881517 3.056508 4.470243 0.255980 0.306420 -0.194430 0.208700 
-0.736500 16.685780 -1.410090 -3.078476 -14.279544 -21.334984 -14.886711 13.887704 2.053058 15.614102 6.878597 -25.374166 25.489681 2.483272 65.351559 1.335704 10.748067 0.482438 0.671430 0.910800 0.394210 18.344750 -11.316644 3.377162 -28.899274 16.092718 -15.040925 12.246840 -16.262874 58.324760 -1.871041 -9.744038 0.631372 0.229630 -0.323810 0.193030 -3.932808 -0.394890 -8.061022 32.602194 -8.466489 44.982567 -15.589472 1.407546 18.565561 16.728620 1.760463 -15.478363 11.927453 -8.885393 63.671405 14.098850 -12.038090 -37.547220 -10.041486 -25.096595 16.441658 -63.414884 7.435482 -22.713016 -54.945346 -31.268044 3.894249 -2.665522 3.212032 0.728940 -0.622560 0.809110 0.129680 -20.511432 34.523202 -5.267336 -1.965904 27.692044 -15.933851 -102.533737 77.597448 -81.756419 2.594282 3.992477 0.277310 0.278630 -0.222400 0.221850 
-0.769760 16.676760 -1.393660 -3.347094 -14.024608 -21.099892 -14.914532 13.689795 2.237653 17.558653 6.760051 -25.966073 22.520449 4.645375 66.812159 1.370170 10.903158 0.447045 0.660090 0.910470 0.392280 18.363031 -11.215836 3.318098 -27.443205 15.878928 -15.072176 11.624573 -16.423851 59.952789 -1.928500 -9.949348 0.607898 0.230400 -0.302210 0.177240 -3.946708 -0.307969 -8.150117 31.695794 -8.183306 44.696984 -14.970505 1.615766 18.603226 16.178207 2.084554 -15.468919 12.158472 -8.794595 62.786631 12.867970 -11.770220 -35.781510 -9.547235 -24.077314 15.766705 -62.030596 7.212342 -22.082003 -55.411529 -32.831425 5.122825 -2.684531 3.231038 0.687240 -0.595110 0.790390 0.145100 -20.026974 33.034873 -3.942389 -0.827940 27.055836 -17.290612 -99.185550 78.560479 -78.501746 2.435683 3.636329 0.273110 0.292620 -0.236910 0.230530 
-0.808170 16.669840 -1.381470 -3.436331 -12.935835 -20.661272 -14.921349 13.190752 2.562134 20.427029 6.459164 -26.936237 17.830580 8.148392 68.303089 1.428124 11.154981 0.366312 0.685980 0.959430 0.390810 18.443966 -11.088422 3.259275 -27.507348 15.253367 -15.504327 12.025478 -17.364359 60.861506 -2.007537 -10.230952 0.542777 0.248560 -0.299090 0.184950 -4.107959 0.139609 -8.312173 30.783833 -7.887248 43.748013 -14.504963 1.657182 19.202528 15.041708 2.337303 -15.355267 12.175243 -8.253613 61.143811 12.202610 -10.736680 -34.539410 -7.475569 -22.013011 14.366668 -59.991775 6.357600 -20.906626 -56.905476 -34.343223 6.887749 -2.680870 3.322277 0.645440 -0.575970 0.791860 0.181940 -19.890275 29.899689 -1.363098 2.246180 26.750935 -17.446089 -100.013366 75.201565 -78.739603 2.589159 2.572868 0.297920 0.269650 -0.277390 0.250510 
-0.854640 16.689900 -1.395130 -3.196316 -11.630355 -20.482554 -14.981110 12.887510 2.966202 22.473496 5.842343 -27.782034 13.348728 11.288053 68.700714 1.422149 11.449113 0.256006 0.676440 0.933060 0.427390 18.450293 -10.968794 3.037621 -26.324426 14.358844 -15.681387 9.881477 -16.746545 62.601884 -2.032031 -10.288784 0.531876 0.232030 -0.304170 0.214380 -4.064463 0.157274 -8.428486 28.310565 -7.101336 44.180094 -13.100535 2.041396 19.432466 13.529568 2.969529 -15.506057 12.231823 -7.904216 59.097475 10.373710 -8.985330 -34.461840 -5.499615 -20.299573 13.142977 -57.438700 5.758240 -19.908395 -60.770086 -37.540745 10.102734 -2.726452 3.372462 0.655390 -0.550220 0.797690 0.154600 -19.218015 26.869573 1.617989 5.346267 26.193438 -16.390852 -102.670491 71.641453 -83.596703 2.670022 2.151675 0.294710 0.253090 -0.263700 0.219330 
-0.928930 16.700320 -1.392480 -2.724746 -10.257676 -19.932716 -15.118121 12.519652 3.496726 25.249050 5.561008 -28.676707 7.556298 15.442241 67.931503 1.420318 11.886116 0.103623 0.629360 0.856570 0.442600 18.420209 -10.617010 2.859526 -25.745673 13.814056 -16.493661 8.525141 -16.779083 64.848834 -2.091127 -10.534523 0.464996 0.197300 -0.309450 0.232850 -3.874961 -0.102720 -8.643387 24.116934 -5.577160 44.637298 -10.984745 2.779815 19.009855 11.785405 3.337575 -15.861834 11.729781 -6.903897 57.454394 7.723230 -6.773870 -33.922960 -4.196121 -18.431422 11.834672 -56.181324 5.460993 -19.469892 -63.557376 -40.893962 13.317459 -2.777884 3.399210 0.685410 -0.522770 0.790170 0.114140 -17.651857 24.000894 5.001931 9.529531 25.495930 -14.264221 -107.313364 67.543599 -93.619213 2.835199 1.347211 0.261300 0.234770 -0.228330 0.169300 
-0.996070 16.708640 -1.383240 -2.165342 -7.749387 -19.079359 -15.280531 12.121717 4.104535 27.429433 4.625996 -30.018431 1.345734 19.216099 66.090426 1.327155 12.445121 -0.076537 0.467490 0.596150 0.425460 18.367506 -10.202154 2.675798 -26.316485 12.764370 -17.294729 7.998808 -17.509890 66.317769 -2.089355 -10.821589 0.367616 0.100650 -0.253330 0.244940 -3.618889 -0.526145 -8.888204 19.401931 -3.914025 44.731112 -8.599848 3.399105 18.129900 9.849718 3.630368 -16.175508 10.906671 -5.328498 54.876511 4.206180 -4.060520 -32.715250 -2.514119 -16.904815 10.896471 -54.669318 5.422930 -18.829452 -69.003971 -45.158533 18.362010 -2.918622 3.354410 0.763820 -0.452760 0.712670 0.003550 -16.134173 21.388407 8.012360 16.592465 23.839138 -13.026334 -111.437894 65.541038 -104.457676 2.799948 0.439866 0.131650 0.248240 -0.087220 0.060550 
-1.067480 16.707510 -1.379910 -1.756464 -4.788317 -18.069943 -15.510614 11.830713 4.724553 29.516710 3.604357 -31.918813 -4.212688 22.066300 63.652492 1.302040 12.876123 -0.175158 0.305120 0.358600 0.376100 18.257377 -9.677575 2.491216 -26.972371 11.547069 -18.232895 7.387008 -18.417888 68.174870 -2.110848 -11.187254 0.286680 -0.006790 -0.172060 0.254790 -3.179016 -1.331168 -9.136371 14.187022 -1.902509 44.919400 -5.415123 4.200659 16.782777 8.174857 3.248415 -16.216355 8.409357 -3.225855 51.903105 0.374460 -1.572870 -30.969070 -1.168498 -15.432460 10.143612 -53.321458 4.423034 -17.534579 -75.722919 -50.280967 25.565651 -3.054883 3.349276 0.789980 -0.372350 0.633740 -0.055250 -14.690473 19.743360 9.808724 24.729879 20.101110 -13.551778 -115.281756 64.758230 -111.760161 2.682837 -0.198971 0.031380 0.263880 0.020610 0.000330 
-1.132810 16.690260 -1.369750 -1.698524 -1.544704 -16.639801 -15.691308 11.601899 5.270925 31.236274 2.368023 -34.258221 -8.680955 23.758814 61.006264 1.223752 13.103390 -0.237204 0.141260 0.115440 0.304930 18.182691 -9.208288 2.351345 -27.681621 10.033151 -19.549726 6.529946 -19.397755 70.088160 -2.125785 -11.542854 0.204662 -0.121990 -0.107680 0.252090 -2.839979 -2.168210 -9.340199 9.968219 -0.568782 44.482998 -3.033704 4.561984 14.969615 6.509965 1.524907 -15.893447 2.775097 -0.049284 50.283335 -2.207150 0.746530 -30.901600 -0.421578 -14.356524 9.735523 -50.368789 2.488633 -15.303943 -84.068936 -55.995831 35.340480 -3.209588 3.324146 0.836580 -0.323860 0.547890 -0.128300 -12.427818 18.783030 10.336962 31.799400 14.753763 -15.388559 -127.241255 68.132240 -131.375417 2.454402 -1.093638 -0.065820 0.266810 0.146450 -0.060360 
-1.193210 16.666510 -1.353120 -1.353470 1.643487 -15.635685 -15.881118 11.584412 5.714651 32.777869 1.070496 -35.983981 -12.572139 24.930046 58.533638 1.085890 13.357198 -0.303058 -0.052450 -0.176170 0.186520 18.079546 -8.773199 2.135535 -28.822040 8.253346 -19.763541 5.585564 -20.087197 71.210100 -2.058943 -11.778396 0.133259 -0.208150 0.034280 0.223760 -2.428000 -3.356941 -9.424400 5.125034 0.599320 44.370423 -0.479862 4.481160 13.553209 4.976093 -2.593375 -15.127675 -7.345066 4.628727 46.128666 -2.979920 2.127880 -30.255210 -0.426742 -11.658385 8.623275 -46.863354 -0.811655 -12.262496 -94.357074 -62.797494 49.081939 -3.482388 3.170583 0.882820 -0.254390 0.400350 -0.200250 -9.273141 18.268599 10.167886 35.955853 9.161839 -18.295678 -139.950912 72.436735 -148.508641 2.223695 -1.337321 -0.230810 0.329240 0.320830 -0.112860 
